<svg width="313" height="152" viewBox="0 0 313 152" fill="none" xmlns="http://www.w3.org/2000/svg">
<path d="M10.8521 29.2468C6.57643 61.993 73.4876 155.808 106.102 111.661C115.944 98.3374 116.962 76.0081 114.038 60.2139C111.84 48.3425 96.4907 48.1349 92.5797 59.24C80.8949 92.4189 128.455 108.233 133.298 75.3491C134.232 69.0063 130.774 63.9746 138.014 64.5631C155.31 65.9687 172.768 65.2884 190.072 64.4844C228.784 62.6855 267.123 61.3555 305.872 61.5007" stroke="#E43A3A" stroke-width="2.5393" stroke-linecap="round"/>
<path d="M282.454 90.9141C290.712 81.9953 298.97 73.0766 307.228 64.1579C311.692 59.3375 303.51 60.836 299.649 59.9976C278.846 55.4809 286.387 54.8368 265.829 49.2698" stroke="#E43A3A" stroke-width="2.24343" stroke-linecap="round"/>
</svg>
