<svg width="644" height="173" viewBox="0 0 644 173" fill="none" xmlns="http://www.w3.org/2000/svg">
<path d="M-5.57784 42.8235C-6.13816 90.773 162.175 215.246 220.564 146.228C238.185 125.399 234.493 93.0121 224.06 70.6975C216.218 53.9251 183.216 56.1262 177.744 72.7881C161.394 122.569 267.644 137.641 269.386 89.3994C269.722 80.0946 260.974 73.3974 276.67 73.0669C314.166 72.2772 351.459 68.4513 388.392 64.4717C471.014 55.5687 552.959 47.4031 636.172 41.2993" stroke="#E43A3A" stroke-width="3.68718" stroke-linecap="round"/>
<path d="M593.645 87.5597C609.024 73.3445 624.403 59.1293 639.782 44.9141C648.094 37.231 630.927 40.7264 622.418 40.1457C576.577 37.0173 592.594 34.8593 547.001 30.1756" stroke="#E43A3A" stroke-width="3.25756" stroke-linecap="round"/>
</svg>
