<svg width="152" height="222" viewBox="0 0 152 222" fill="none" xmlns="http://www.w3.org/2000/svg">
<path d="M194.926 209.417C207.86 195.865 192.928 115.459 157.858 119.625C147.274 120.882 139.701 131.12 136.737 140.275C134.509 147.157 144.525 155.319 150.528 152.016C168.461 142.148 142.118 109.536 128.768 122.856C126.193 125.425 126.908 129.669 122.336 125.582C111.411 115.819 99.7363 106.977 88.1233 98.2746C62.1437 78.8074 36.5541 59.3098 11.1515 38.8853" stroke="#E43A3A" stroke-width="1.44043" stroke-linecap="round"/>
<path d="M35.6261 36.9972C27.4448 36.9618 19.2634 36.9264 11.082 36.891C6.66013 36.8719 12.4966 40.4466 14.7732 42.8794C27.0381 55.9858 21.8865 52.3352 33.6662 65.82" stroke="#E43A3A" stroke-width="1.2726" stroke-linecap="round"/>
</svg>
