<svg width="162" height="143" viewBox="0 0 162 143" fill="none" xmlns="http://www.w3.org/2000/svg">
<path d="M18.2291 24.8301C17.3491 29.179 24.9182 40.0978 31.9752 43.042C41.3846 46.9677 42.035 47.0225 51.7345 48.8455C61.4339 50.6685 71.6044 43.102 78.5408 37.0351C81.0668 34.8257 85.9065 30.8895 86.7162 27.391C87.1179 25.6551 82.8648 26.2606 82.1351 26.6076C75.0935 29.9557 70.694 38.6031 73.771 46.4109C76.5628 53.4951 84.7067 56.0686 91.5622 57.384C105.242 60.0087 117.675 49.578 125.441 39.2491C126.789 37.4571 136.336 23.4946 132.079 22.0646C128.271 20.7858 123.801 24.0604 121.319 26.7335C118.451 29.8238 117.203 36.957 117.615 41.0166C118.326 48.0173 125.212 52.5121 131.546 53.7939C139.453 55.394 148.108 51.5666 154.604 47.2572C160.898 43.0824 159.29 40.366 152.172 40.3498C144.066 40.3314 140.166 52.948 136.955 58.7663C123.455 83.2355 112.333 107.541 105.871 134.773" stroke="#E43A3A" stroke-width="2.50027" stroke-linecap="round"/>
<path d="M96.7868 113.554C96.9424 116.986 97.0251 116.578 99.5441 123.718C100.568 127.185 102.515 130.306 103.72 133.706C103.849 134.068 104.783 136.282 104.987 136.147C105.356 135.902 105.75 135.108 106.019 134.795C107.708 132.829 109.513 130.952 111.318 129.092C116.028 124.242 121.201 119.842 126.156 115.245" stroke="#E43A3A" stroke-width="2.50027" stroke-linecap="round"/>
</svg>
