<svg width="290" height="99" viewBox="0 0 290 99" fill="none" xmlns="http://www.w3.org/2000/svg">
<path d="M283.171 78.9508C283.171 79.945 284.09 80.7507 285.225 80.7507H285.948C287.081 80.7507 288 79.945 288 78.9508V72.6768C288 71.6827 287.081 70.877 285.948 70.877H285.225C284.09 70.877 283.171 71.6833 283.171 72.6768V78.9508Z" fill="white" stroke="#E43A3A" stroke-width="2.13539" stroke-miterlimit="10"/>
<path d="M59.6869 85.8257C59.6563 86.0722 59.5801 86.4148 59.9795 86.4148H62.485C62.9434 86.4148 63.2786 86.0522 63.2751 85.6459C63.2722 84.2099 63.3712 81.1781 63.9705 79.0537C65.824 72.5007 71.8202 67.2497 80.329 67.2497C92.5634 67.2497 101.478 77.431 98.5076 87.8739C98.3773 88.3407 98.2549 89.2401 98.9959 89.2401C184.218 89.2401 202.514 89.8404 201.961 87.9625C198.914 77.4685 207.867 67.2497 220.115 67.2497C228.737 67.2497 238.735 72.7766 238.806 84.5968C238.817 85.8194 239.902 86.8385 241.282 86.8385H278.406C281.627 86.8385 283.639 81.8602 283.639 81.8602C285.85 77.0167 284.589 58.7671 279.954 36.3174C278.949 31.4607 273.496 16.7884 257.672 9.54085C243.701 3.14083 232.021 2 223.839 2H69.2948H20.2477C18.7892 2 17.5016 2.86124 17.1037 4.10256C9.17426 28.852 3.66708 51.4172 3.66708 54.4228V80.3742C3.66708 81.6624 4.64508 82.7963 6.0509 83.1365C18.0418 86.0422 21.9247 87.5594 21.919 85.2446C21.919 83.8061 22.003 81.1999 22.5546 79.2521C24.4067 72.6998 32.5041 67.5555 41.0129 67.5555C52.302 67.5555 60.7632 76.2241 59.672 85.767C59.6606 85.8282 59.6869 85.8257 59.6869 85.8257Z" fill="white" stroke="#E43A3A" stroke-width="2.13539" stroke-miterlimit="10"/>
<path d="M249.465 12.5478C248.314 12.0466 246.951 12.1028 245.859 12.6969C244.767 13.2911 244.106 14.337 244.106 15.4641V77.5303C244.106 78.8497 245.33 79.9225 246.833 79.9225H268.57C270.074 79.9225 271.298 78.8503 271.298 77.5303C271.298 77.5303 271.298 70.4419 271.298 53.1609C271.298 25.9345 257.388 15.999 249.465 12.5478Z" fill="white" stroke="#E43A3A" stroke-width="2.13539" stroke-miterlimit="10"/>
<path d="M248.64 15.707C248.813 15.707 248.986 15.7432 249.143 15.8112C256.146 18.8612 267.893 27.521 267.893 51.2507V57.7406C267.893 58.8696 266.849 59.7845 265.562 59.7845H249.843C248.555 59.7845 247.511 58.8696 247.511 57.7406V16.7018C247.511 16.3542 247.709 16.0384 248.045 15.8562C248.223 15.7588 248.429 15.707 248.64 15.707Z" fill="white" stroke="#E43A3A" stroke-width="2.13539" stroke-miterlimit="10"/>
<path d="M14.0571 26.9108C13.7418 27.9836 14.6636 29.0265 15.927 29.0265H187.67C202.495 29.0265 216.139 36.1142 223.261 47.5145L235.228 66.674C236.058 67.2119 237.231 66.6939 237.231 65.7909V10.3201C237.231 9.11369 236.116 8.13574 234.738 8.13574H22.0812C20.6164 8.13574 19.333 9.00759 18.9643 10.2514L14.0571 26.9108Z" fill="white" stroke="#E43A3A" stroke-width="2.13539" stroke-miterlimit="10"/>
<path d="M1.99994 75.6147C1.99994 76.8217 3.11745 77.7996 4.49193 77.7996H5.06351V70.2812H4.49193C3.11745 70.2812 1.99994 71.2592 1.99994 72.4662V75.6147Z" fill="white" stroke="#E43A3A" stroke-width="2.13539" stroke-miterlimit="10"/>
<path d="M108.816 84.7691H132.175C133.791 84.7691 135.107 83.6158 135.107 82.1979V35.5192C135.107 34.1019 133.791 32.9492 132.175 32.9492H108.816C107.2 32.9492 105.885 34.1019 105.885 35.5192V82.1979C105.884 83.6158 107.199 84.7691 108.816 84.7691Z" fill="white" stroke="#E43A3A" stroke-width="2.13539" stroke-miterlimit="10"/>
<path d="M204.735 84.3144C204.735 91.7579 211.619 97.7922 220.109 97.7922C228.598 97.7922 235.48 91.7579 235.48 84.3144C235.48 76.8703 228.598 70.8359 220.109 70.8359C211.619 70.8366 204.735 76.8709 204.735 84.3144Z" fill="white" stroke="#E43A3A" stroke-width="2.13539" stroke-miterlimit="10"/>
<path d="M211.712 84.3145C211.712 88.3805 215.471 91.6763 220.109 91.6763C224.746 91.6763 228.505 88.3798 228.505 84.3145C228.505 80.2486 224.746 76.9521 220.109 76.9521C215.471 76.9521 211.712 80.2492 211.712 84.3145Z" fill="white" stroke="#E43A3A" stroke-width="2.13539" stroke-miterlimit="10"/>
<path d="M215.255 84.3143C215.255 86.6646 217.428 88.5693 220.109 88.5693C222.79 88.5693 224.962 86.6646 224.962 84.3143C224.962 81.9639 222.789 80.0586 220.109 80.0586C217.427 80.0586 215.255 81.9646 215.255 84.3143Z" fill="white" stroke="#E43A3A" stroke-width="2.13539" stroke-miterlimit="10"/>
<path d="M65.8197 84.3144C65.8197 91.7579 72.7027 97.7922 81.1923 97.7922C89.6819 97.7922 96.5643 91.7579 96.5643 84.3144C96.5643 76.8703 89.6819 70.8359 81.1923 70.8359C72.7027 70.8366 65.8197 76.8709 65.8197 84.3144Z" fill="white" stroke="#E43A3A" stroke-width="2.13539" stroke-miterlimit="10"/>
<path d="M72.7952 84.3145C72.7952 88.3805 76.5542 91.6763 81.1922 91.6763C85.8303 91.6763 89.5886 88.3798 89.5886 84.3145C89.5886 80.2486 85.8303 76.9521 81.1922 76.9521C76.5542 76.9521 72.7952 80.2492 72.7952 84.3145Z" fill="white" stroke="#E43A3A" stroke-width="2.13539" stroke-miterlimit="10"/>
<path d="M76.3378 84.3143C76.3378 86.6646 78.5123 88.5693 81.1922 88.5693C83.8729 88.5693 86.0452 86.6646 86.0452 84.3143C86.0452 81.9639 83.8721 80.0586 81.1922 80.0586C78.5116 80.0586 76.3378 81.9646 76.3378 84.3143Z" fill="white" stroke="#E43A3A" stroke-width="2.13539" stroke-miterlimit="10"/>
<path d="M25.4459 84.3144C25.4459 91.7579 32.329 97.7922 40.8193 97.7922C49.3082 97.7922 56.1905 91.7579 56.1905 84.3144C56.1905 76.8703 49.3082 70.8359 40.8193 70.8359C32.329 70.8366 25.4459 76.8709 25.4459 84.3144Z" fill="white" stroke="#E43A3A" stroke-width="2.13539" stroke-miterlimit="10"/>
<path d="M32.4207 84.3145C32.4207 88.3805 36.1804 91.6763 40.8184 91.6763C45.4551 91.6763 49.2141 88.3798 49.2141 84.3145C49.2141 80.2486 45.4551 76.9521 40.8184 76.9521C36.1811 76.9521 32.4207 80.2492 32.4207 84.3145Z" fill="white" stroke="#E43A3A" stroke-width="2.13539" stroke-miterlimit="10"/>
<path d="M35.964 84.3143C35.964 86.6646 38.1371 88.5693 40.8184 88.5693C43.499 88.5693 45.6708 86.6646 45.6708 84.3143C45.6708 81.9639 43.4983 80.0586 40.8184 80.0586C38.1371 80.0586 35.964 81.9646 35.964 84.3143Z" fill="white" stroke="#E43A3A" stroke-width="2.13539" stroke-miterlimit="10"/>
<path d="M247.582 5.66895C247.582 5.66895 267.208 10.53 278.148 23.3625C283.387 29.5091 285.585 36.9732 285.585 45.2043C285.585 50.2975 285.585 58.2921 285.585 62.1795C285.585 63.4352 284.424 64.4537 282.991 64.4537H281.216C280.522 64.4537 279.858 64.2103 279.37 63.7772C278.883 63.3447 278.613 62.7587 278.623 62.1508C278.667 59.1196 278.734 53.5047 278.734 47.7993C278.734 37.8557 279.197 34.0781 273.19 24.1407C266.764 13.5112 247.582 5.66895 247.582 5.66895Z" fill="white" stroke="#E43A3A" stroke-width="2.13539" stroke-miterlimit="10"/>
<path d="M95.8497 44.3564H24.7854" stroke="#E43A3A" stroke-width="2.13539" stroke-miterlimit="10"/>
<path d="M89.3695 50.4512H18.3052" stroke="#E43A3A" stroke-width="2.13539" stroke-miterlimit="10"/>
<path d="M81.1547 56.5469H10.0889" stroke="#E43A3A" stroke-width="2.13539" stroke-miterlimit="10"/>
</svg>
