<svg width="17" height="16" viewBox="0 0 17 16" fill="none" xmlns="http://www.w3.org/2000/svg">
<path d="M2.53047 15L12.0905 0.999999H14.4705L4.91047 15H2.53047ZM3.75047 8.56C3.07047 8.56 2.47047 8.40667 1.95047 8.1C1.43047 7.78 1.01714 7.33333 0.710469 6.76C0.417135 6.17333 0.270469 5.48667 0.270469 4.7C0.270469 3.91333 0.417135 3.23333 0.710469 2.66C1.01714 2.08667 1.43047 1.64 1.95047 1.32C2.47047 1 3.07047 0.84 3.75047 0.84C4.43047 0.84 5.03047 1 5.55047 1.32C6.07047 1.64 6.47714 2.08667 6.77047 2.66C7.0638 3.23333 7.21047 3.91333 7.21047 4.7C7.21047 5.48667 7.0638 6.17333 6.77047 6.76C6.47714 7.33333 6.07047 7.78 5.55047 8.1C5.03047 8.40667 4.43047 8.56 3.75047 8.56ZM3.75047 6.92C4.19047 6.92 4.5438 6.74 4.81047 6.38C5.07714 6.00667 5.21047 5.44667 5.21047 4.7C5.21047 3.95333 5.07714 3.4 4.81047 3.04C4.5438 2.66667 4.19047 2.48 3.75047 2.48C3.3238 2.48 2.97047 2.66667 2.69047 3.04C2.4238 3.4 2.29047 3.95333 2.29047 4.7C2.29047 5.43333 2.4238 5.98667 2.69047 6.36C2.97047 6.73333 3.3238 6.92 3.75047 6.92ZM13.2505 15.16C12.5838 15.16 11.9838 15.0067 11.4505 14.7C10.9305 14.38 10.5238 13.9333 10.2305 13.36C9.93714 12.7733 9.79047 12.0867 9.79047 11.3C9.79047 10.5133 9.93714 9.83333 10.2305 9.26C10.5238 8.68667 10.9305 8.24 11.4505 7.92C11.9838 7.6 12.5838 7.44 13.2505 7.44C13.9438 7.44 14.5505 7.6 15.0705 7.92C15.5905 8.24 15.9971 8.68667 16.2905 9.26C16.5838 9.83333 16.7305 10.5133 16.7305 11.3C16.7305 12.0867 16.5838 12.7733 16.2905 13.36C15.9971 13.9333 15.5905 14.38 15.0705 14.7C14.5505 15.0067 13.9438 15.16 13.2505 15.16ZM13.2505 13.52C13.6905 13.52 14.0438 13.34 14.3105 12.98C14.5771 12.6067 14.7105 12.0467 14.7105 11.3C14.7105 10.5667 14.5771 10.0133 14.3105 9.64C14.0438 9.26667 13.6905 9.08 13.2505 9.08C12.8238 9.08 12.4705 9.26667 12.1905 9.64C11.9238 10 11.7905 10.5533 11.7905 11.3C11.7905 12.0467 11.9238 12.6067 12.1905 12.98C12.4705 13.34 12.8238 13.52 13.2505 13.52Z" fill="#FFB429"/>
</svg>
