<svg width="20" height="20" viewBox="0 0 20 20" fill="none" xmlns="http://www.w3.org/2000/svg">
<path fill-rule="evenodd" clip-rule="evenodd" d="M10.0001 18C12.1219 18 14.1567 17.1571 15.657 15.6569C17.1573 14.1566 18.0001 12.1217 18.0001 10C18.0001 7.87827 17.1573 5.84344 15.657 4.34315C14.1567 2.84285 12.1219 2 10.0001 2C7.87839 2 5.84356 2.84285 4.34327 4.34315C2.84298 5.84344 2.00012 7.87827 2.00012 10C2.00012 12.1217 2.84298 14.1566 4.34327 15.6569C5.84356 17.1571 7.87839 18 10.0001 18ZM13.7071 8.707C13.8893 8.5184 13.9901 8.2658 13.9878 8.0036C13.9855 7.7414 13.8803 7.49059 13.6949 7.30518C13.5095 7.11977 13.2587 7.0146 12.9965 7.01233C12.7343 7.01005 12.4817 7.11084 12.2931 7.293L9.00012 10.586L7.70712 9.293C7.51852 9.11084 7.26592 9.01005 7.00372 9.01233C6.74152 9.0146 6.49071 9.11977 6.3053 9.30518C6.11989 9.49059 6.01473 9.7414 6.01245 10.0036C6.01017 10.2658 6.11096 10.5184 6.29312 10.707L8.29312 12.707C8.48065 12.8945 8.73496 12.9998 9.00012 12.9998C9.26529 12.9998 9.51959 12.8945 9.70712 12.707L13.7071 8.707Z" fill="#1F7D1A"/>
</svg>
