<svg width="18" height="20" viewBox="0 0 18 20" fill="none" xmlns="http://www.w3.org/2000/svg">
<path fill-rule="evenodd" clip-rule="evenodd" d="M10.5814 2.03375C10.8307 2.10675 11.0395 2.29573 11.1556 2.55273C11.5903 3.51973 11.9152 4.10676 12.2419 4.58276C12.5731 5.06476 12.9223 5.45874 13.4551 6.04974C14.6845 7.41674 15.3001 9.20975 15.3001 10.9997C15.3001 12.7897 14.6845 14.5828 13.4551 15.9498C10.9945 18.6828 7.00568 18.6828 4.54508 15.9498C3.31568 14.5828 2.70007 12.7897 2.70007 10.9997C2.70007 9.20975 3.31568 7.41674 4.54508 6.04974C4.80248 5.76374 5.18947 5.67873 5.52607 5.83373C5.86267 5.98773 6.08138 6.35277 6.08138 6.75677C6.08138 7.87677 6.14437 8.72976 6.43957 9.41076C6.60157 9.78476 6.85448 10.1508 7.29008 10.4778C7.39448 9.41678 7.58528 8.12376 7.84268 6.89776C8.04518 5.93176 8.29717 4.96775 8.59777 4.16375C8.74807 3.76075 8.91817 3.37872 9.11077 3.04772C9.29797 2.72572 9.53918 2.39878 9.85058 2.16778C10.0657 2.00878 10.3321 1.95975 10.5814 2.03375ZM10.909 15.1207C9.85507 16.2927 8.14507 16.2927 7.09117 15.1207C6.56377 14.5357 6.30007 13.7677 6.30007 12.9997C6.30007 12.9997 7.09117 13.4997 8.55007 13.4997C8.55007 12.4997 9.00007 9.49975 9.67507 8.99975C10.1251 9.99975 10.3825 10.2928 10.909 10.8788C11.4364 11.4638 11.7001 12.2317 11.7001 12.9997C11.7001 13.7677 11.4364 14.5357 10.909 15.1207Z" fill="#FFB429"/>
</svg>
